# xmcd
#
# Track frame offsets:
# 150
# 13474
# 25340
# 38827
# 54155
# 68813
# 85139
# 101899
# 114059
# 130613
# 144603
# 163826
# 179715
# 194733
# 207671
# 221958
# 235850
# 250455
# 263692
# 281961
#
# Disc length: 3956 seconds
#
#
# Revision: 0
# Processed by: cddbd v1.5.2PL0 Copyright (c) Steve Scherf et al.
# Submitted via: FreeRIP 2.96 
#
DISCID=3b0f7214
DTITLE=ATAIDE E ALEXANDRE - AS 20 MAIS
DYEAR=1900
DGENRE=SERTANEJA
TTITLE0=O DOCE TOQUE DO AMOR
TTITLE1=CHORADEIRA
TTITLE2=ACORDO PRA SONHAR
TTITLE3=EU ME ENGANEI
TTITLE4=COME QUIETO
TTITLE5=ONTEM A NOITE PERGUNTEI POR VOCE
TTITLE6=EU VIM DE LA
TTITLE7=SO OUTRA PAIXAO
TTITLE8=QUANDO O AMOR E PRA VALER
TTITLE9=NOIS NAMORA
TTITLE10=RECOMECAR
TTITLE11=AMOR DE ARREPIAR
TTITLE12=MEU CORACAO FAZ TUM TUM
TTITLE13=FICANDO COM AS ERRADAS
TTITLE14=TODO MUNDO TEM
TTITLE15=UAI SO
TTITLE16=LIGUEI PRA DIZER QUE TE AMO
TTITLE17=CLAREOU
TTITLE18=LACO ABERTO
TTITLE19=MULHER BOA ERA A MARIA
EXTD=
EXTT0=
EXTT1=
EXTT2=
EXTT3=
EXTT4=
EXTT5=
EXTT6=
EXTT7=
EXTT8=
EXTT9=
EXTT10=
EXTT11=
EXTT12=
EXTT13=
EXTT14=
EXTT15=
EXTT16=
EXTT17=
EXTT18=
EXTT19=
PLAYORDER=
